<svg width="64" height="64" viewBox="0 0 64 64" fill="none" xmlns="http://www.w3.org/2000/svg">
<rect width="64" height="64" rx="8" fill="#1D1D1D"/>
<mask id="mask0_2003_1528" style="mask-type:alpha" maskUnits="userSpaceOnUse" x="0" y="0" width="64" height="64">
<rect width="64" height="64" rx="8" fill="#B6FF02"/>
</mask>
<g mask="url(#mask0_2003_1528)">
<path d="M-11.5254 0.489227L-11.5847 0.0146484H-19L-18.9258 0.637534C-15.0402 32.1971 11.8773 56.0002 43.6889 56.0002H72.8904L72.8459 55.4069C72.7421 53.7163 72.9497 51.6548 73.4688 49.3116L73.6171 48.6294H43.6741C15.9557 48.6294 -7.77324 27.9407 -11.5402 0.504058L-11.5254 0.489227Z" fill="#B6FF02"/>
<path d="M6.84975 0.504241L6.80525 0H-0.595215L-0.535893 0.608054C1.48107 23.5955 21.1316 41.5998 44.2229 41.5998H75.8565L75.99 41.2439C76.7315 39.2863 77.6065 37.1803 78.5854 35.015L78.9413 34.229H44.2229C24.8838 34.229 8.82222 19.7247 6.86458 0.48941L6.84975 0.504241Z" fill="#B6FF02"/>
<path d="M52.6463 21.2226C40.07 21.2226 29.1843 12.6802 26.1589 0.430089L26.0551 0H18.5508L18.6843 0.667378C21.9025 16.8476 36.1844 28.5786 52.6463 28.5786H81.6698L81.8181 28.2671C82.8711 26.2057 83.9834 24.1146 85.1253 22.0234L85.5851 21.1929H52.6463V21.2226Z" fill="#B6FF02"/>
</g>
</svg>
