<svg width="198" height="70" viewBox="0 0 198 70" fill="none" xmlns="http://www.w3.org/2000/svg">
<g clip-path="url(#clip0_122_2401)">
<path d="M65.2402 66.6398C65.2402 65.7598 65.5202 64.6598 66.0702 63.3098L70.6102 52.5898C71.1602 51.2698 71.7202 50.1898 72.2702 49.3398C72.8202 48.4998 73.4502 47.8298 74.1402 47.3398C74.8302 46.8498 75.6402 46.5098 76.5702 46.3198C77.5002 46.1298 78.6202 46.0298 79.9502 46.0298H94.1902C94.5102 46.0298 94.6702 46.1298 94.6702 46.3198C94.6702 46.4098 94.6402 46.5298 94.5702 46.6998L92.3002 52.0398C92.1302 52.4898 91.8102 52.7098 91.3402 52.7098H79.4702C78.8902 52.7098 78.4702 53.0498 78.1902 53.7298L74.6102 62.1498C74.5002 62.4098 74.4502 62.5998 74.4502 62.7298C74.4502 63.0298 74.6502 63.1798 75.0602 63.1798H86.9002C87.3302 63.1798 87.4502 63.3998 87.2802 63.8498L84.9802 69.2598C84.8102 69.7098 84.4902 69.9298 84.0202 69.9298H70.0402C66.8402 69.9298 65.2402 68.8298 65.2402 66.6298V66.6398Z" fill="#DFDFDF"/>
<path d="M87.1602 69.2598L96.7302 46.6998C96.9402 46.2498 97.2602 46.0298 97.6902 46.0298H104.35C104.67 46.0298 104.83 46.1298 104.83 46.3198C104.83 46.4098 104.8 46.5298 104.73 46.6998L95.1602 69.2598C94.9902 69.7098 94.6702 69.9298 94.2002 69.9298H87.5402C87.1102 69.9298 86.9802 69.7098 87.1602 69.2598Z" fill="#DFDFDF"/>
<path d="M97.6902 69.2598L107.26 46.6998C107.47 46.2498 107.79 46.0298 108.22 46.0298H124.41C127.33 46.0298 128.79 46.8798 128.79 48.5898C128.79 49.2898 128.59 50.0898 128.18 50.9898L125.52 57.2898C125.01 58.5098 124.32 59.4698 123.46 60.1898C122.6 60.8998 121.51 61.3998 120.21 61.6798L120.5 69.3298C120.5 69.7398 120.29 69.9398 119.86 69.9398H113.72C113.25 69.9398 113.02 69.7398 113.02 69.3298L112.86 61.9398H108.73L105.63 69.2698C105.46 69.7198 105.14 69.9398 104.67 69.9398H98.0802C97.6502 69.9398 97.5302 69.7198 97.7002 69.2698L97.6902 69.2598ZM117.24 56.1098C117.84 56.1098 118.27 55.7798 118.55 55.1198L119.13 53.7398C119.24 53.4798 119.29 53.2898 119.29 53.1598C119.29 52.8598 119.09 52.7098 118.68 52.7098H112.63L111.19 56.0998H117.24V56.1098Z" fill="#DFDFDF"/>
<path d="M124.31 66.6398C124.31 65.7598 124.59 64.6598 125.14 63.3098L129.68 52.5898C130.23 51.2698 130.79 50.1898 131.34 49.3398C131.89 48.4998 132.52 47.8298 133.21 47.3398C133.9 46.8498 134.71 46.5098 135.64 46.3198C136.57 46.1298 137.69 46.0298 139.02 46.0298H153.26C153.58 46.0298 153.74 46.1298 153.74 46.3198C153.74 46.4098 153.71 46.5298 153.64 46.6998L151.37 52.0398C151.2 52.4898 150.88 52.7098 150.41 52.7098H138.54C137.96 52.7098 137.54 53.0498 137.26 53.7298L133.68 62.1498C133.57 62.4098 133.52 62.5998 133.52 62.7298C133.52 63.0298 133.72 63.1798 134.13 63.1798H145.97C146.4 63.1798 146.52 63.3998 146.35 63.8498L144.05 69.2598C143.88 69.7098 143.56 69.9298 143.09 69.9298H129.11C125.91 69.9298 124.31 68.8298 124.31 66.6298V66.6398Z" fill="#DFDFDF"/>
<path d="M146.2 69.2598L155.77 46.6998C155.98 46.2498 156.3 46.0298 156.73 46.0298H163.83C164.26 46.0298 164.38 46.2498 164.21 46.6998L157.23 63.1798H167.92C168.35 63.1798 168.47 63.3998 168.3 63.8498L166 69.2598C165.83 69.7098 165.51 69.9298 165.04 69.9298H146.58C146.15 69.9298 146.03 69.7098 146.2 69.2598Z" fill="#DFDFDF"/>
<path d="M167.93 69.2598L177.5 46.6998C177.71 46.2498 178.03 46.0298 178.46 46.0298H197.12C197.44 46.0298 197.6 46.1298 197.6 46.3198C197.6 46.4098 197.57 46.5298 197.5 46.6998L195.23 52.0398C195.06 52.4898 194.74 52.7098 194.27 52.7098H182.97L181.98 55.0498H192.32C192.64 55.0498 192.8 55.1498 192.8 55.3398C192.8 55.4198 192.77 55.5498 192.7 55.7198L190.81 60.1698C190.64 60.6198 190.33 60.8398 189.88 60.8398H179.54L178.55 63.1798H190.07C190.5 63.1798 190.62 63.3998 190.45 63.8498L188.15 69.2598C187.98 69.7098 187.66 69.9298 187.19 69.9298H168.31C167.88 69.9298 167.76 69.7098 167.93 69.2598Z" fill="#DFDFDF"/>
<path d="M0.500044 29.36L12.59 0.85C12.86 0.28 13.26 0 13.8 0H34.27C37.96 0 39.81 1.08 39.81 3.24C39.81 4.13 39.55 5.14 39.04 6.27L35.68 14.24C35.03 15.78 34.16 17 33.07 17.9C31.98 18.8 30.61 19.43 28.96 19.78L29.32 29.45C29.32 29.96 29.05 30.22 28.51 30.22H20.74C20.15 30.22 19.85 29.96 19.85 29.45L19.65 20.11H14.43L10.51 29.37C10.29 29.94 9.89004 30.22 9.30004 30.22H0.980044C0.440044 30.22 0.280044 29.94 0.490044 29.37L0.500044 29.36ZM25.21 12.74C25.97 12.74 26.52 12.32 26.87 11.49L27.6 9.75C27.73 9.43 27.8 9.18 27.8 9.02C27.8 8.64 27.54 8.45 27.03 8.45H19.39L17.57 12.74H25.21Z" fill="#DFDFDF"/>
<path d="M33.6602 26.61C33.6602 25.8 33.8802 24.88 34.3102 23.86L44.0602 0.85C44.3302 0.28 44.7302 0 45.2702 0H53.6802C54.0802 0 54.2902 0.12 54.2902 0.36C54.2902 0.47 54.2502 0.63 54.1702 0.84L45.8802 20.38C45.7502 20.7 45.6802 20.95 45.6802 21.11C45.6802 21.49 45.9402 21.68 46.4502 21.68H53.6502C54.3502 21.68 54.8802 21.25 55.2302 20.39L63.5202 0.85C63.7902 0.28 64.1902 0 64.7302 0H73.1402C73.5402 0 73.7502 0.12 73.7502 0.36C73.7502 0.47 73.7102 0.63 73.6302 0.84L63.8802 23.85C63.3402 25.12 62.8002 26.16 62.2402 26.98C61.6902 27.8 61.0502 28.45 60.3202 28.92C59.5902 29.39 58.7402 29.72 57.7502 29.91C56.7602 30.1 55.5602 30.19 54.1302 30.19H38.6802C37.1402 30.19 35.9202 29.89 35.0202 29.3C34.1202 28.71 33.6602 27.8 33.6602 26.59V26.61Z" fill="#DFDFDF"/>
<path d="M64.44 29.36L76.54 0.85C76.81 0.28 77.21 0 77.75 0H87.74C88.28 0 88.6 0.24 88.71 0.73L90.89 11.81C90.97 12.19 90.98 12.85 90.93 13.79C91.09 13.25 91.29 12.7 91.52 12.13C91.75 11.56 92.01 10.93 92.31 10.23L96.27 0.85C96.49 0.28 96.89 0 97.48 0H105.89C106.29 0 106.5 0.12 106.5 0.36C106.5 0.47 106.46 0.63 106.38 0.84L94.29 29.36C94.07 29.93 93.67 30.21 93.08 30.21H85.64C85.07 30.21 84.75 29.97 84.67 29.48L81.6 14.47C81.55 14.28 81.5 14.02 81.48 13.7C81.45 13.38 81.47 12.99 81.52 12.53C81.36 13.15 81.17 13.73 80.95 14.27C80.73 14.81 80.49 15.39 80.22 16.01L74.56 29.36C74.34 29.93 73.94 30.21 73.35 30.21H64.94C64.4 30.21 64.24 29.93 64.45 29.36H64.44Z" fill="#DFDFDF"/>
<path d="M97.2901 29.36L109.38 0.85C109.65 0.28 110.05 0 110.59 0H120.58C121.12 0 121.44 0.24 121.55 0.73L123.73 11.81C123.81 12.19 123.82 12.85 123.77 13.79C123.93 13.25 124.13 12.7 124.36 12.13C124.59 11.56 124.85 10.93 125.15 10.23L129.11 0.85C129.33 0.28 129.73 0 130.32 0H138.73C139.13 0 139.34 0.12 139.34 0.36C139.34 0.47 139.3 0.63 139.22 0.84L127.13 29.36C126.91 29.93 126.51 30.21 125.92 30.21H118.48C117.91 30.21 117.59 29.97 117.51 29.48L114.44 14.47C114.39 14.28 114.35 14.02 114.32 13.7C114.29 13.38 114.31 12.99 114.36 12.53C114.2 13.15 114.01 13.73 113.79 14.27C113.57 14.81 113.33 15.39 113.06 16.01L107.4 29.36C107.18 29.93 106.78 30.21 106.19 30.21H97.7801C97.2401 30.21 97.0801 29.93 97.3001 29.36H97.2901Z" fill="#DFDFDF"/>
<path d="M130.13 29.36L142.22 0.85C142.49 0.28 142.89 0 143.43 0H167.01C167.41 0 167.62 0.12 167.62 0.36C167.62 0.47 167.58 0.63 167.5 0.84L164.63 7.6C164.41 8.17 164.01 8.45 163.42 8.45H149.14L147.89 11.4H160.96C161.36 11.4 161.57 11.52 161.57 11.76C161.57 11.87 161.53 12.03 161.45 12.25L159.06 17.87C158.84 18.44 158.45 18.72 157.89 18.72H144.83L143.58 21.67H158.14C158.68 21.67 158.84 21.95 158.63 22.52L155.72 29.36C155.5 29.93 155.1 30.21 154.51 30.21H130.65C130.11 30.21 129.95 29.93 130.16 29.36H130.13Z" fill="#DFDFDF"/>
<path d="M158.69 29.36L170.78 0.85C171.05 0.28 171.45 0 171.99 0H192.46C196.15 0 198 1.08 198 3.24C198 4.13 197.74 5.14 197.23 6.27L193.87 14.24C193.22 15.78 192.35 17 191.26 17.9C190.17 18.8 188.8 19.43 187.15 19.78L187.51 29.45C187.51 29.96 187.24 30.22 186.7 30.22H178.93C178.34 30.22 178.04 29.96 178.04 29.45L177.84 20.11H172.62L168.7 29.37C168.48 29.94 168.08 30.22 167.49 30.22H159.16C158.62 30.22 158.46 29.94 158.67 29.37L158.69 29.36ZM183.4 12.74C184.16 12.74 184.71 12.32 185.06 11.49L185.79 9.75C185.92 9.43 185.99 9.18 185.99 9.02C185.99 8.64 185.73 8.45 185.22 8.45H177.58L175.76 12.74H183.4Z" fill="#DFDFDF"/>
<path d="M5.04 31.8L5 31.48H0L0.05 31.9C2.67 53.18 20.82 69.23 42.27 69.23H61.96L61.93 68.83C61.86 67.69 62 66.3 62.35 64.72L62.45 64.26H42.26C23.57 64.26 7.57 50.31 5.03 31.81L5.04 31.8Z" fill="#DFDFDF"/>
<path d="M17.4302 31.8102L17.4002 31.4702H12.4102L12.4502 31.8802C13.8102 47.3802 27.0602 59.5202 42.6302 59.5202H63.9602L64.0502 59.2802C64.5502 57.9602 65.1402 56.5402 65.8002 55.0802L66.0402 54.5502H42.6302C29.5902 54.5502 18.7602 44.7702 17.4402 31.8002L17.4302 31.8102Z" fill="#DFDFDF"/>
<path d="M48.3098 45.7802C39.8298 45.7802 32.4898 40.0202 30.4498 31.7602L30.3798 31.4702H25.3198L25.4098 31.9202C27.5798 42.8302 37.2098 50.7402 48.3098 50.7402H67.8798L67.9798 50.5302C68.6898 49.1402 69.4398 47.7302 70.2098 46.3202L70.5198 45.7602H48.3098V45.7802Z" fill="#DFDFDF"/>
</g>
<defs>
<clipPath id="clip0_122_2401">
<rect width="198" height="69.93" fill="white"/>
</clipPath>
</defs>
</svg>
