<svg width="198" height="71" viewBox="0 0 198 71" fill="none" xmlns="http://www.w3.org/2000/svg">
<g clip-path="url(#clip0_122_2424)">
<path d="M65.2402 67.4996C65.2402 66.6196 65.5202 65.5197 66.0702 64.1697L70.6102 53.4496C71.1602 52.1296 71.7202 51.0496 72.2702 50.1996C72.8202 49.3596 73.4502 48.6896 74.1402 48.1996C74.8302 47.7096 75.6402 47.3696 76.5702 47.1796C77.5002 46.9896 78.6202 46.8896 79.9502 46.8896H94.1902C94.5102 46.8896 94.6702 46.9896 94.6702 47.1796C94.6702 47.2696 94.6402 47.3897 94.5702 47.5597L92.3002 52.8997C92.1302 53.3497 91.8102 53.5696 91.3402 53.5696H79.4702C78.8902 53.5696 78.4702 53.9096 78.1902 54.5896L74.6102 63.0097C74.5002 63.2697 74.4502 63.4597 74.4502 63.5896C74.4502 63.8896 74.6502 64.0396 75.0602 64.0396H86.9002C87.3302 64.0396 87.4502 64.2596 87.2802 64.7096L84.9802 70.1197C84.8102 70.5697 84.4902 70.7896 84.0202 70.7896H70.0402C66.8402 70.7896 65.2402 69.6896 65.2402 67.4896V67.4996Z" fill="#B6FF02"/>
<path d="M87.1602 70.1197L96.7302 47.5597C96.9402 47.1097 97.2602 46.8896 97.6902 46.8896H104.35C104.67 46.8896 104.83 46.9896 104.83 47.1796C104.83 47.2696 104.8 47.3897 104.73 47.5597L95.1602 70.1197C94.9902 70.5697 94.6702 70.7896 94.2002 70.7896H87.5402C87.1102 70.7896 86.9802 70.5697 87.1602 70.1197Z" fill="#B6FF02"/>
<path d="M97.6902 70.1197L107.26 47.5597C107.47 47.1097 107.79 46.8896 108.22 46.8896H124.41C127.33 46.8896 128.79 47.7396 128.79 49.4496C128.79 50.1496 128.59 50.9497 128.18 51.8497L125.52 58.1497C125.01 59.3697 124.32 60.3296 123.46 61.0496C122.6 61.7596 121.51 62.2597 120.21 62.5396L120.5 70.1897C120.5 70.5997 120.29 70.7997 119.86 70.7997H113.72C113.25 70.7997 113.02 70.5997 113.02 70.1897L112.86 62.7996H108.73L105.63 70.1296C105.46 70.5796 105.14 70.7997 104.67 70.7997H98.0802C97.6502 70.7997 97.5302 70.5796 97.7002 70.1296L97.6902 70.1197ZM117.24 56.9697C117.84 56.9697 118.27 56.6396 118.55 55.9796L119.13 54.5997C119.24 54.3397 119.29 54.1496 119.29 54.0196C119.29 53.7196 119.09 53.5696 118.68 53.5696H112.63L111.19 56.9596H117.24V56.9697Z" fill="#B6FF02"/>
<path d="M124.31 67.4996C124.31 66.6196 124.59 65.5197 125.14 64.1697L129.68 53.4496C130.23 52.1296 130.79 51.0496 131.34 50.1996C131.89 49.3596 132.52 48.6896 133.21 48.1996C133.9 47.7096 134.71 47.3696 135.64 47.1796C136.57 46.9896 137.69 46.8896 139.02 46.8896H153.26C153.58 46.8896 153.74 46.9896 153.74 47.1796C153.74 47.2696 153.71 47.3897 153.64 47.5597L151.37 52.8997C151.2 53.3497 150.88 53.5696 150.41 53.5696H138.54C137.96 53.5696 137.54 53.9096 137.26 54.5896L133.68 63.0097C133.57 63.2697 133.52 63.4597 133.52 63.5896C133.52 63.8896 133.72 64.0396 134.13 64.0396H145.97C146.4 64.0396 146.52 64.2596 146.35 64.7096L144.05 70.1197C143.88 70.5697 143.56 70.7896 143.09 70.7896H129.11C125.91 70.7896 124.31 69.6896 124.31 67.4896V67.4996Z" fill="#B6FF02"/>
<path d="M146.2 70.1197L155.77 47.5597C155.98 47.1097 156.3 46.8896 156.73 46.8896H163.83C164.26 46.8896 164.38 47.1097 164.21 47.5597L157.23 64.0396H167.92C168.35 64.0396 168.47 64.2596 168.3 64.7096L166 70.1197C165.83 70.5697 165.51 70.7896 165.04 70.7896H146.58C146.15 70.7896 146.03 70.5697 146.2 70.1197Z" fill="#B6FF02"/>
<path d="M167.93 70.1197L177.5 47.5597C177.71 47.1097 178.03 46.8896 178.46 46.8896H197.12C197.44 46.8896 197.6 46.9896 197.6 47.1796C197.6 47.2696 197.57 47.3897 197.5 47.5597L195.23 52.8997C195.06 53.3497 194.74 53.5696 194.27 53.5696H182.97L181.98 55.9096H192.32C192.64 55.9096 192.8 56.0097 192.8 56.1996C192.8 56.2796 192.77 56.4097 192.7 56.5797L190.81 61.0296C190.64 61.4796 190.33 61.6996 189.88 61.6996H179.54L178.55 64.0396H190.07C190.5 64.0396 190.62 64.2596 190.45 64.7096L188.15 70.1197C187.98 70.5697 187.66 70.7896 187.19 70.7896H168.31C167.88 70.7896 167.76 70.5697 167.93 70.1197Z" fill="#B6FF02"/>
<path d="M0.500044 30.2199L12.59 1.70986C12.86 1.13986 13.26 0.859863 13.8 0.859863H34.27C37.96 0.859863 39.81 1.93986 39.81 4.09986C39.81 4.98986 39.55 5.99986 39.04 7.12986L35.68 15.0999C35.03 16.6399 34.16 17.8599 33.07 18.7599C31.98 19.6599 30.61 20.2899 28.96 20.6399L29.32 30.3099C29.32 30.8199 29.05 31.0799 28.51 31.0799H20.74C20.15 31.0799 19.85 30.8199 19.85 30.3099L19.65 20.9699H14.43L10.51 30.2299C10.29 30.7999 9.89004 31.0799 9.30004 31.0799H0.980044C0.440044 31.0799 0.280044 30.7999 0.490044 30.2299L0.500044 30.2199ZM25.21 13.5999C25.97 13.5999 26.52 13.1799 26.87 12.3499L27.6 10.6099C27.73 10.2899 27.8 10.0399 27.8 9.87986C27.8 9.49986 27.54 9.30986 27.03 9.30986H19.39L17.57 13.5999H25.21Z" fill="#B6FF02"/>
<path d="M33.6602 27.4699C33.6602 26.6599 33.8802 25.7399 34.3102 24.7199L44.0602 1.70986C44.3302 1.13986 44.7302 0.859863 45.2702 0.859863H53.6802C54.0802 0.859863 54.2902 0.979863 54.2902 1.21986C54.2902 1.32986 54.2502 1.48986 54.1702 1.69986L45.8802 21.2399C45.7502 21.5599 45.6802 21.8099 45.6802 21.9699C45.6802 22.3499 45.9402 22.5399 46.4502 22.5399H53.6502C54.3502 22.5399 54.8802 22.1099 55.2302 21.2499L63.5202 1.70986C63.7902 1.13986 64.1902 0.859863 64.7302 0.859863H73.1402C73.5402 0.859863 73.7502 0.979863 73.7502 1.21986C73.7502 1.32986 73.7102 1.48986 73.6302 1.69986L63.8802 24.7099C63.3402 25.9799 62.8002 27.0199 62.2402 27.8399C61.6902 28.6599 61.0502 29.3099 60.3202 29.7799C59.5902 30.2499 58.7402 30.5799 57.7502 30.7699C56.7602 30.9599 55.5602 31.0499 54.1302 31.0499H38.6802C37.1402 31.0499 35.9202 30.7499 35.0202 30.1599C34.1202 29.5699 33.6602 28.6599 33.6602 27.4499V27.4699Z" fill="#B6FF02"/>
<path d="M64.44 30.2199L76.54 1.70986C76.81 1.13986 77.21 0.859863 77.75 0.859863H87.74C88.28 0.859863 88.6 1.09986 88.71 1.58986L90.89 12.6699C90.97 13.0499 90.98 13.7099 90.93 14.6499C91.09 14.1099 91.29 13.5599 91.52 12.9899C91.75 12.4199 92.01 11.7899 92.31 11.0899L96.27 1.70986C96.49 1.13986 96.89 0.859863 97.48 0.859863H105.89C106.29 0.859863 106.5 0.979863 106.5 1.21986C106.5 1.32986 106.46 1.48986 106.38 1.69986L94.29 30.2199C94.07 30.7899 93.67 31.0699 93.08 31.0699H85.64C85.07 31.0699 84.75 30.8299 84.67 30.3399L81.6 15.3299C81.55 15.1399 81.5 14.8799 81.48 14.5599C81.45 14.2399 81.47 13.8499 81.52 13.3899C81.36 14.0099 81.17 14.5899 80.95 15.1299C80.73 15.6699 80.49 16.2499 80.22 16.8699L74.56 30.2199C74.34 30.7899 73.94 31.0699 73.35 31.0699H64.94C64.4 31.0699 64.24 30.7899 64.45 30.2199H64.44Z" fill="#B6FF02"/>
<path d="M97.2901 30.2199L109.38 1.70986C109.65 1.13986 110.05 0.859863 110.59 0.859863H120.58C121.12 0.859863 121.44 1.09986 121.55 1.58986L123.73 12.6699C123.81 13.0499 123.82 13.7099 123.77 14.6499C123.93 14.1099 124.13 13.5599 124.36 12.9899C124.59 12.4199 124.85 11.7899 125.15 11.0899L129.11 1.70986C129.33 1.13986 129.73 0.859863 130.32 0.859863H138.73C139.13 0.859863 139.34 0.979863 139.34 1.21986C139.34 1.32986 139.3 1.48986 139.22 1.69986L127.13 30.2199C126.91 30.7899 126.51 31.0699 125.92 31.0699H118.48C117.91 31.0699 117.59 30.8299 117.51 30.3399L114.44 15.3299C114.39 15.1399 114.35 14.8799 114.32 14.5599C114.29 14.2399 114.31 13.8499 114.36 13.3899C114.2 14.0099 114.01 14.5899 113.79 15.1299C113.57 15.6699 113.33 16.2499 113.06 16.8699L107.4 30.2199C107.18 30.7899 106.78 31.0699 106.19 31.0699H97.7801C97.2401 31.0699 97.0801 30.7899 97.3001 30.2199H97.2901Z" fill="#B6FF02"/>
<path d="M130.13 30.2199L142.22 1.70986C142.49 1.13986 142.89 0.859863 143.43 0.859863H167.01C167.41 0.859863 167.62 0.979863 167.62 1.21986C167.62 1.32986 167.58 1.48986 167.5 1.69986L164.63 8.45986C164.41 9.02986 164.01 9.30986 163.42 9.30986H149.14L147.89 12.2599H160.96C161.36 12.2599 161.57 12.3799 161.57 12.6199C161.57 12.7299 161.53 12.8899 161.45 13.1099L159.06 18.7299C158.84 19.2999 158.45 19.5799 157.89 19.5799H144.83L143.58 22.5299H158.14C158.68 22.5299 158.84 22.8099 158.63 23.3799L155.72 30.2199C155.5 30.7899 155.1 31.0699 154.51 31.0699H130.65C130.11 31.0699 129.95 30.7899 130.16 30.2199H130.13Z" fill="#B6FF02"/>
<path d="M158.69 30.2199L170.78 1.70986C171.05 1.13986 171.45 0.859863 171.99 0.859863H192.46C196.15 0.859863 198 1.93986 198 4.09986C198 4.98986 197.74 5.99986 197.23 7.12986L193.87 15.0999C193.22 16.6399 192.35 17.8599 191.26 18.7599C190.17 19.6599 188.8 20.2899 187.15 20.6399L187.51 30.3099C187.51 30.8199 187.24 31.0799 186.7 31.0799H178.93C178.34 31.0799 178.04 30.8199 178.04 30.3099L177.84 20.9699H172.62L168.7 30.2299C168.48 30.7999 168.08 31.0799 167.49 31.0799H159.16C158.62 31.0799 158.46 30.7999 158.67 30.2299L158.69 30.2199ZM183.4 13.5999C184.16 13.5999 184.71 13.1799 185.06 12.3499L185.79 10.6099C185.92 10.2899 185.99 10.0399 185.99 9.87986C185.99 9.49986 185.73 9.30986 185.22 9.30986H177.58L175.76 13.5999H183.4Z" fill="#B6FF02"/>
<path d="M5.04 32.6598L5 32.3398H0L0.05 32.7598C2.67 54.0398 20.82 70.0898 42.27 70.0898H61.96L61.93 69.6898C61.86 68.5498 62 67.1598 62.35 65.5798L62.45 65.1198H42.26C23.57 65.1198 7.57 51.1698 5.03 32.6698L5.04 32.6598Z" fill="#B6FF02"/>
<path d="M17.4302 32.6701L17.4002 32.3301H12.4102L12.4502 32.7401C13.8102 48.2401 27.0602 60.3801 42.6302 60.3801H63.9602L64.0502 60.1401C64.5502 58.8201 65.1402 57.4001 65.8002 55.9401L66.0402 55.4101H42.6302C29.5902 55.4101 18.7602 45.6301 17.4402 32.6601L17.4302 32.6701Z" fill="#B6FF02"/>
<path d="M48.3098 46.6401C39.8298 46.6401 32.4898 40.8801 30.4498 32.6201L30.3798 32.3301H25.3198L25.4098 32.7801C27.5798 43.6901 37.2098 51.6001 48.3098 51.6001H67.8798L67.9798 51.3901C68.6898 50.0001 69.4398 48.5901 70.2098 47.1801L70.5198 46.6201H48.3098V46.6401Z" fill="#B6FF02"/>
</g>
<defs>
<clipPath id="clip0_122_2424">
<rect width="198" height="69.93" fill="white" transform="translate(0 0.859863)"/>
</clipPath>
</defs>
</svg>
