<svg width="198" height="71" viewBox="0 0 198 71" fill="none" xmlns="http://www.w3.org/2000/svg">
<g clip-path="url(#clip0_125_1475)">
<path d="M65.2402 67.4298C65.2402 66.5498 65.5202 65.4498 66.0702 64.0998L70.6102 53.3798C71.1602 52.0598 71.7202 50.9798 72.2702 50.1298C72.8202 49.2898 73.4502 48.6198 74.1402 48.1298C74.8302 47.6398 75.6402 47.2998 76.5702 47.1098C77.5002 46.9198 78.6202 46.8198 79.9502 46.8198H94.1902C94.5102 46.8198 94.6702 46.9198 94.6702 47.1098C94.6702 47.1998 94.6402 47.3198 94.5702 47.4898L92.3002 52.8298C92.1302 53.2798 91.8102 53.4998 91.3402 53.4998H79.4702C78.8902 53.4998 78.4702 53.8398 78.1902 54.5198L74.6102 62.9398C74.5002 63.1998 74.4502 63.3898 74.4502 63.5198C74.4502 63.8198 74.6502 63.9698 75.0602 63.9698H86.9002C87.3302 63.9698 87.4502 64.1898 87.2802 64.6398L84.9802 70.0498C84.8102 70.4998 84.4902 70.7198 84.0202 70.7198H70.0402C66.8402 70.7198 65.2402 69.6198 65.2402 67.4198V67.4298Z" fill="#699CFF"/>
<path d="M87.1602 70.0498L96.7302 47.4898C96.9402 47.0398 97.2602 46.8198 97.6902 46.8198H104.35C104.67 46.8198 104.83 46.9198 104.83 47.1098C104.83 47.1998 104.8 47.3198 104.73 47.4898L95.1602 70.0498C94.9902 70.4998 94.6702 70.7198 94.2002 70.7198H87.5402C87.1102 70.7198 86.9802 70.4998 87.1602 70.0498Z" fill="#699CFF"/>
<path d="M97.6902 70.0498L107.26 47.4898C107.47 47.0398 107.79 46.8198 108.22 46.8198H124.41C127.33 46.8198 128.79 47.6698 128.79 49.3798C128.79 50.0798 128.59 50.8798 128.18 51.7798L125.52 58.0798C125.01 59.2998 124.32 60.2598 123.46 60.9798C122.6 61.6898 121.51 62.1898 120.21 62.4698L120.5 70.1198C120.5 70.5298 120.29 70.7298 119.86 70.7298H113.72C113.25 70.7298 113.02 70.5298 113.02 70.1198L112.86 62.7298H108.73L105.63 70.0598C105.46 70.5098 105.14 70.7298 104.67 70.7298H98.0802C97.6502 70.7298 97.5302 70.5098 97.7002 70.0598L97.6902 70.0498ZM117.24 56.8998C117.84 56.8998 118.27 56.5698 118.55 55.9098L119.13 54.5298C119.24 54.2698 119.29 54.0798 119.29 53.9498C119.29 53.6498 119.09 53.4998 118.68 53.4998H112.63L111.19 56.8898H117.24V56.8998Z" fill="#699CFF"/>
<path d="M124.31 67.4298C124.31 66.5498 124.59 65.4498 125.14 64.0998L129.68 53.3798C130.23 52.0598 130.79 50.9798 131.34 50.1298C131.89 49.2898 132.52 48.6198 133.21 48.1298C133.9 47.6398 134.71 47.2998 135.64 47.1098C136.57 46.9198 137.69 46.8198 139.02 46.8198H153.26C153.58 46.8198 153.74 46.9198 153.74 47.1098C153.74 47.1998 153.71 47.3198 153.64 47.4898L151.37 52.8298C151.2 53.2798 150.88 53.4998 150.41 53.4998H138.54C137.96 53.4998 137.54 53.8398 137.26 54.5198L133.68 62.9398C133.57 63.1998 133.52 63.3898 133.52 63.5198C133.52 63.8198 133.72 63.9698 134.13 63.9698H145.97C146.4 63.9698 146.52 64.1898 146.35 64.6398L144.05 70.0498C143.88 70.4998 143.56 70.7198 143.09 70.7198H129.11C125.91 70.7198 124.31 69.6198 124.31 67.4198V67.4298Z" fill="#699CFF"/>
<path d="M146.2 70.0498L155.77 47.4898C155.98 47.0398 156.3 46.8198 156.73 46.8198H163.83C164.26 46.8198 164.38 47.0398 164.21 47.4898L157.23 63.9698H167.92C168.35 63.9698 168.47 64.1898 168.3 64.6398L166 70.0498C165.83 70.4998 165.51 70.7198 165.04 70.7198H146.58C146.15 70.7198 146.03 70.4998 146.2 70.0498Z" fill="#699CFF"/>
<path d="M167.93 70.0498L177.5 47.4898C177.71 47.0398 178.03 46.8198 178.46 46.8198H197.12C197.44 46.8198 197.6 46.9198 197.6 47.1098C197.6 47.1998 197.57 47.3198 197.5 47.4898L195.23 52.8298C195.06 53.2798 194.74 53.4998 194.27 53.4998H182.97L181.98 55.8398H192.32C192.64 55.8398 192.8 55.9398 192.8 56.1298C192.8 56.2098 192.77 56.3398 192.7 56.5098L190.81 60.9598C190.64 61.4098 190.33 61.6298 189.88 61.6298H179.54L178.55 63.9698H190.07C190.5 63.9698 190.62 64.1898 190.45 64.6398L188.15 70.0498C187.98 70.4998 187.66 70.7198 187.19 70.7198H168.31C167.88 70.7198 167.76 70.4998 167.93 70.0498Z" fill="#699CFF"/>
<path d="M0.500044 30.15L12.59 1.64004C12.86 1.07004 13.26 0.790039 13.8 0.790039H34.27C37.96 0.790039 39.81 1.87004 39.81 4.03004C39.81 4.92004 39.55 5.93004 39.04 7.06004L35.68 15.03C35.03 16.57 34.16 17.79 33.07 18.69C31.98 19.59 30.61 20.22 28.96 20.57L29.32 30.24C29.32 30.75 29.05 31.01 28.51 31.01H20.74C20.15 31.01 19.85 30.75 19.85 30.24L19.65 20.9H14.43L10.51 30.16C10.29 30.73 9.89004 31.01 9.30004 31.01H0.980044C0.440044 31.01 0.280044 30.73 0.490044 30.16L0.500044 30.15ZM25.21 13.53C25.97 13.53 26.52 13.11 26.87 12.28L27.6 10.54C27.73 10.22 27.8 9.97004 27.8 9.81004C27.8 9.43004 27.54 9.24004 27.03 9.24004H19.39L17.57 13.53H25.21Z" fill="#699CFF"/>
<path d="M33.6602 27.4C33.6602 26.59 33.8802 25.67 34.3102 24.65L44.0602 1.64004C44.3302 1.07004 44.7302 0.790039 45.2702 0.790039H53.6802C54.0802 0.790039 54.2902 0.910039 54.2902 1.15004C54.2902 1.26004 54.2502 1.42004 54.1702 1.63004L45.8802 21.17C45.7502 21.49 45.6802 21.74 45.6802 21.9C45.6802 22.28 45.9402 22.47 46.4502 22.47H53.6502C54.3502 22.47 54.8802 22.04 55.2302 21.18L63.5202 1.64004C63.7902 1.07004 64.1902 0.790039 64.7302 0.790039H73.1402C73.5402 0.790039 73.7502 0.910039 73.7502 1.15004C73.7502 1.26004 73.7102 1.42004 73.6302 1.63004L63.8802 24.64C63.3402 25.91 62.8002 26.95 62.2402 27.77C61.6902 28.59 61.0502 29.24 60.3202 29.71C59.5902 30.18 58.7402 30.51 57.7502 30.7C56.7602 30.89 55.5602 30.98 54.1302 30.98H38.6802C37.1402 30.98 35.9202 30.68 35.0202 30.09C34.1202 29.5 33.6602 28.59 33.6602 27.38V27.4Z" fill="#699CFF"/>
<path d="M64.44 30.15L76.54 1.64004C76.81 1.07004 77.21 0.790039 77.75 0.790039H87.74C88.28 0.790039 88.6 1.03004 88.71 1.52004L90.89 12.6C90.97 12.98 90.98 13.64 90.93 14.58C91.09 14.04 91.29 13.49 91.52 12.92C91.75 12.35 92.01 11.72 92.31 11.02L96.27 1.64004C96.49 1.07004 96.89 0.790039 97.48 0.790039H105.89C106.29 0.790039 106.5 0.910039 106.5 1.15004C106.5 1.26004 106.46 1.42004 106.38 1.63004L94.29 30.15C94.07 30.72 93.67 31 93.08 31H85.64C85.07 31 84.75 30.76 84.67 30.27L81.6 15.26C81.55 15.07 81.5 14.81 81.48 14.49C81.45 14.17 81.47 13.78 81.52 13.32C81.36 13.94 81.17 14.52 80.95 15.06C80.73 15.6 80.49 16.18 80.22 16.8L74.56 30.15C74.34 30.72 73.94 31 73.35 31H64.94C64.4 31 64.24 30.72 64.45 30.15H64.44Z" fill="#699CFF"/>
<path d="M97.2901 30.15L109.38 1.64004C109.65 1.07004 110.05 0.790039 110.59 0.790039H120.58C121.12 0.790039 121.44 1.03004 121.55 1.52004L123.73 12.6C123.81 12.98 123.82 13.64 123.77 14.58C123.93 14.04 124.13 13.49 124.36 12.92C124.59 12.35 124.85 11.72 125.15 11.02L129.11 1.64004C129.33 1.07004 129.73 0.790039 130.32 0.790039H138.73C139.13 0.790039 139.34 0.910039 139.34 1.15004C139.34 1.26004 139.3 1.42004 139.22 1.63004L127.13 30.15C126.91 30.72 126.51 31 125.92 31H118.48C117.91 31 117.59 30.76 117.51 30.27L114.44 15.26C114.39 15.07 114.35 14.81 114.32 14.49C114.29 14.17 114.31 13.78 114.36 13.32C114.2 13.94 114.01 14.52 113.79 15.06C113.57 15.6 113.33 16.18 113.06 16.8L107.4 30.15C107.18 30.72 106.78 31 106.19 31H97.7801C97.2401 31 97.0801 30.72 97.3001 30.15H97.2901Z" fill="#699CFF"/>
<path d="M130.13 30.15L142.22 1.64004C142.49 1.07004 142.89 0.790039 143.43 0.790039H167.01C167.41 0.790039 167.62 0.910039 167.62 1.15004C167.62 1.26004 167.58 1.42004 167.5 1.63004L164.63 8.39004C164.41 8.96004 164.01 9.24004 163.42 9.24004H149.14L147.89 12.19H160.96C161.36 12.19 161.57 12.31 161.57 12.55C161.57 12.66 161.53 12.82 161.45 13.04L159.06 18.66C158.84 19.23 158.45 19.51 157.89 19.51H144.83L143.58 22.46H158.14C158.68 22.46 158.84 22.74 158.63 23.31L155.72 30.15C155.5 30.72 155.1 31 154.51 31H130.65C130.11 31 129.95 30.72 130.16 30.15H130.13Z" fill="#699CFF"/>
<path d="M158.69 30.15L170.78 1.64004C171.05 1.07004 171.45 0.790039 171.99 0.790039H192.46C196.15 0.790039 198 1.87004 198 4.03004C198 4.92004 197.74 5.93004 197.23 7.06004L193.87 15.03C193.22 16.57 192.35 17.79 191.26 18.69C190.17 19.59 188.8 20.22 187.15 20.57L187.51 30.24C187.51 30.75 187.24 31.01 186.7 31.01H178.93C178.34 31.01 178.04 30.75 178.04 30.24L177.84 20.9H172.62L168.7 30.16C168.48 30.73 168.08 31.01 167.49 31.01H159.16C158.62 31.01 158.46 30.73 158.67 30.16L158.69 30.15ZM183.4 13.53C184.16 13.53 184.71 13.11 185.06 12.28L185.79 10.54C185.92 10.22 185.99 9.97004 185.99 9.81004C185.99 9.43004 185.73 9.24004 185.22 9.24004H177.58L175.76 13.53H183.4Z" fill="#699CFF"/>
<path d="M5.04 32.59L5 32.27H0L0.05 32.69C2.67 53.97 20.82 70.02 42.27 70.02H61.96L61.93 69.62C61.86 68.48 62 67.09 62.35 65.51L62.45 65.05H42.26C23.57 65.05 7.57 51.1 5.03 32.6L5.04 32.59Z" fill="#699CFF"/>
<path d="M17.4302 32.6003L17.4002 32.2603H12.4102L12.4502 32.6703C13.8102 48.1703 27.0602 60.3103 42.6302 60.3103H63.9602L64.0502 60.0703C64.5502 58.7503 65.1402 57.3303 65.8002 55.8703L66.0402 55.3403H42.6302C29.5902 55.3403 18.7602 45.5603 17.4402 32.5903L17.4302 32.6003Z" fill="#699CFF"/>
<path d="M48.3098 46.5703C39.8298 46.5703 32.4898 40.8103 30.4498 32.5503L30.3798 32.2603H25.3198L25.4098 32.7103C27.5798 43.6203 37.2098 51.5303 48.3098 51.5303H67.8798L67.9798 51.3203C68.6898 49.9303 69.4398 48.5203 70.2098 47.1103L70.5198 46.5503H48.3098V46.5703Z" fill="#699CFF"/>
</g>
<defs>
<clipPath id="clip0_125_1475">
<rect width="198" height="69.93" fill="white" transform="translate(0 0.790039)"/>
</clipPath>
</defs>
</svg>
