<svg width="198" height="71" viewBox="0 0 198 71" fill="none" xmlns="http://www.w3.org/2000/svg">
<g clip-path="url(#clip0_125_1496)">
<path d="M65.2402 67.57C65.2402 66.69 65.5202 65.59 66.0702 64.24L70.6102 53.52C71.1602 52.2 71.7202 51.12 72.2702 50.27C72.8202 49.43 73.4502 48.76 74.1402 48.27C74.8302 47.78 75.6402 47.44 76.5702 47.25C77.5002 47.06 78.6202 46.96 79.9502 46.96H94.1902C94.5102 46.96 94.6702 47.06 94.6702 47.25C94.6702 47.34 94.6402 47.46 94.5702 47.63L92.3002 52.97C92.1302 53.42 91.8102 53.64 91.3402 53.64H79.4702C78.8902 53.64 78.4702 53.98 78.1902 54.66L74.6102 63.08C74.5002 63.34 74.4502 63.53 74.4502 63.66C74.4502 63.96 74.6502 64.11 75.0602 64.11H86.9002C87.3302 64.11 87.4502 64.33 87.2802 64.78L84.9802 70.19C84.8102 70.64 84.4902 70.86 84.0202 70.86H70.0402C66.8402 70.86 65.2402 69.76 65.2402 67.56V67.57Z" fill="#DFDFDF"/>
<path d="M87.1602 70.19L96.7302 47.63C96.9402 47.18 97.2602 46.96 97.6902 46.96H104.35C104.67 46.96 104.83 47.06 104.83 47.25C104.83 47.34 104.8 47.46 104.73 47.63L95.1602 70.19C94.9902 70.64 94.6702 70.86 94.2002 70.86H87.5402C87.1102 70.86 86.9802 70.64 87.1602 70.19Z" fill="#DFDFDF"/>
<path d="M97.6902 70.19L107.26 47.63C107.47 47.18 107.79 46.96 108.22 46.96H124.41C127.33 46.96 128.79 47.81 128.79 49.52C128.79 50.22 128.59 51.02 128.18 51.92L125.52 58.22C125.01 59.44 124.32 60.4 123.46 61.12C122.6 61.83 121.51 62.33 120.21 62.61L120.5 70.26C120.5 70.67 120.29 70.87 119.86 70.87H113.72C113.25 70.87 113.02 70.67 113.02 70.26L112.86 62.87H108.73L105.63 70.2C105.46 70.65 105.14 70.87 104.67 70.87H98.0802C97.6502 70.87 97.5302 70.65 97.7002 70.2L97.6902 70.19ZM117.24 57.04C117.84 57.04 118.27 56.71 118.55 56.05L119.13 54.67C119.24 54.41 119.29 54.22 119.29 54.09C119.29 53.79 119.09 53.64 118.68 53.64H112.63L111.19 57.03H117.24V57.04Z" fill="#DFDFDF"/>
<path d="M124.31 67.57C124.31 66.69 124.59 65.59 125.14 64.24L129.68 53.52C130.23 52.2 130.79 51.12 131.34 50.27C131.89 49.43 132.52 48.76 133.21 48.27C133.9 47.78 134.71 47.44 135.64 47.25C136.57 47.06 137.69 46.96 139.02 46.96H153.26C153.58 46.96 153.74 47.06 153.74 47.25C153.74 47.34 153.71 47.46 153.64 47.63L151.37 52.97C151.2 53.42 150.88 53.64 150.41 53.64H138.54C137.96 53.64 137.54 53.98 137.26 54.66L133.68 63.08C133.57 63.34 133.52 63.53 133.52 63.66C133.52 63.96 133.72 64.11 134.13 64.11H145.97C146.4 64.11 146.52 64.33 146.35 64.78L144.05 70.19C143.88 70.64 143.56 70.86 143.09 70.86H129.11C125.91 70.86 124.31 69.76 124.31 67.56V67.57Z" fill="#DFDFDF"/>
<path d="M146.2 70.19L155.77 47.63C155.98 47.18 156.3 46.96 156.73 46.96H163.83C164.26 46.96 164.38 47.18 164.21 47.63L157.23 64.11H167.92C168.35 64.11 168.47 64.33 168.3 64.78L166 70.19C165.83 70.64 165.51 70.86 165.04 70.86H146.58C146.15 70.86 146.03 70.64 146.2 70.19Z" fill="#DFDFDF"/>
<path d="M167.93 70.19L177.5 47.63C177.71 47.18 178.03 46.96 178.46 46.96H197.12C197.44 46.96 197.6 47.06 197.6 47.25C197.6 47.34 197.57 47.46 197.5 47.63L195.23 52.97C195.06 53.42 194.74 53.64 194.27 53.64H182.97L181.98 55.98H192.32C192.64 55.98 192.8 56.08 192.8 56.27C192.8 56.35 192.77 56.48 192.7 56.65L190.81 61.1C190.64 61.55 190.33 61.77 189.88 61.77H179.54L178.55 64.11H190.07C190.5 64.11 190.62 64.33 190.45 64.78L188.15 70.19C187.98 70.64 187.66 70.86 187.19 70.86H168.31C167.88 70.86 167.76 70.64 167.93 70.19Z" fill="#DFDFDF"/>
<path d="M0.500044 30.2902L12.59 1.78018C12.86 1.21018 13.26 0.930176 13.8 0.930176H34.27C37.96 0.930176 39.81 2.01018 39.81 4.17018C39.81 5.06018 39.55 6.07018 39.04 7.20018L35.68 15.1702C35.03 16.7102 34.16 17.9302 33.07 18.8302C31.98 19.7302 30.61 20.3602 28.96 20.7102L29.32 30.3802C29.32 30.8902 29.05 31.1502 28.51 31.1502H20.74C20.15 31.1502 19.85 30.8902 19.85 30.3802L19.65 21.0402H14.43L10.51 30.3002C10.29 30.8702 9.89004 31.1502 9.30004 31.1502H0.980044C0.440044 31.1502 0.280044 30.8702 0.490044 30.3002L0.500044 30.2902ZM25.21 13.6702C25.97 13.6702 26.52 13.2502 26.87 12.4202L27.6 10.6802C27.73 10.3602 27.8 10.1102 27.8 9.95018C27.8 9.57018 27.54 9.38018 27.03 9.38018H19.39L17.57 13.6702H25.21Z" fill="#DFDFDF"/>
<path d="M33.6602 27.5402C33.6602 26.7302 33.8802 25.8102 34.3102 24.7902L44.0602 1.78018C44.3302 1.21018 44.7302 0.930176 45.2702 0.930176H53.6802C54.0802 0.930176 54.2902 1.05018 54.2902 1.29018C54.2902 1.40018 54.2502 1.56018 54.1702 1.77018L45.8802 21.3102C45.7502 21.6302 45.6802 21.8802 45.6802 22.0402C45.6802 22.4202 45.9402 22.6102 46.4502 22.6102H53.6502C54.3502 22.6102 54.8802 22.1802 55.2302 21.3202L63.5202 1.78018C63.7902 1.21018 64.1902 0.930176 64.7302 0.930176H73.1402C73.5402 0.930176 73.7502 1.05018 73.7502 1.29018C73.7502 1.40018 73.7102 1.56018 73.6302 1.77018L63.8802 24.7802C63.3402 26.0502 62.8002 27.0902 62.2402 27.9102C61.6902 28.7302 61.0502 29.3802 60.3202 29.8502C59.5902 30.3202 58.7402 30.6502 57.7502 30.8402C56.7602 31.0302 55.5602 31.1202 54.1302 31.1202H38.6802C37.1402 31.1202 35.9202 30.8202 35.0202 30.2302C34.1202 29.6402 33.6602 28.7302 33.6602 27.5202V27.5402Z" fill="#DFDFDF"/>
<path d="M64.44 30.2902L76.54 1.78018C76.81 1.21018 77.21 0.930176 77.75 0.930176H87.74C88.28 0.930176 88.6 1.17018 88.71 1.66018L90.89 12.7402C90.97 13.1202 90.98 13.7802 90.93 14.7202C91.09 14.1802 91.29 13.6302 91.52 13.0602C91.75 12.4902 92.01 11.8602 92.31 11.1602L96.27 1.78018C96.49 1.21018 96.89 0.930176 97.48 0.930176H105.89C106.29 0.930176 106.5 1.05018 106.5 1.29018C106.5 1.40018 106.46 1.56018 106.38 1.77018L94.29 30.2902C94.07 30.8602 93.67 31.1402 93.08 31.1402H85.64C85.07 31.1402 84.75 30.9002 84.67 30.4102L81.6 15.4002C81.55 15.2102 81.5 14.9502 81.48 14.6302C81.45 14.3102 81.47 13.9202 81.52 13.4602C81.36 14.0802 81.17 14.6602 80.95 15.2002C80.73 15.7402 80.49 16.3202 80.22 16.9402L74.56 30.2902C74.34 30.8602 73.94 31.1402 73.35 31.1402H64.94C64.4 31.1402 64.24 30.8602 64.45 30.2902H64.44Z" fill="#DFDFDF"/>
<path d="M97.2901 30.2902L109.38 1.78018C109.65 1.21018 110.05 0.930176 110.59 0.930176H120.58C121.12 0.930176 121.44 1.17018 121.55 1.66018L123.73 12.7402C123.81 13.1202 123.82 13.7802 123.77 14.7202C123.93 14.1802 124.13 13.6302 124.36 13.0602C124.59 12.4902 124.85 11.8602 125.15 11.1602L129.11 1.78018C129.33 1.21018 129.73 0.930176 130.32 0.930176H138.73C139.13 0.930176 139.34 1.05018 139.34 1.29018C139.34 1.40018 139.3 1.56018 139.22 1.77018L127.13 30.2902C126.91 30.8602 126.51 31.1402 125.92 31.1402H118.48C117.91 31.1402 117.59 30.9002 117.51 30.4102L114.44 15.4002C114.39 15.2102 114.35 14.9502 114.32 14.6302C114.29 14.3102 114.31 13.9202 114.36 13.4602C114.2 14.0802 114.01 14.6602 113.79 15.2002C113.57 15.7402 113.33 16.3202 113.06 16.9402L107.4 30.2902C107.18 30.8602 106.78 31.1402 106.19 31.1402H97.7801C97.2401 31.1402 97.0801 30.8602 97.3001 30.2902H97.2901Z" fill="#DFDFDF"/>
<path d="M130.13 30.2902L142.22 1.78018C142.49 1.21018 142.89 0.930176 143.43 0.930176H167.01C167.41 0.930176 167.62 1.05018 167.62 1.29018C167.62 1.40018 167.58 1.56018 167.5 1.77018L164.63 8.53018C164.41 9.10018 164.01 9.38018 163.42 9.38018H149.14L147.89 12.3302H160.96C161.36 12.3302 161.57 12.4502 161.57 12.6902C161.57 12.8002 161.53 12.9602 161.45 13.1802L159.06 18.8002C158.84 19.3702 158.45 19.6502 157.89 19.6502H144.83L143.58 22.6002H158.14C158.68 22.6002 158.84 22.8802 158.63 23.4502L155.72 30.2902C155.5 30.8602 155.1 31.1402 154.51 31.1402H130.65C130.11 31.1402 129.95 30.8602 130.16 30.2902H130.13Z" fill="#DFDFDF"/>
<path d="M158.69 30.2902L170.78 1.78018C171.05 1.21018 171.45 0.930176 171.99 0.930176H192.46C196.15 0.930176 198 2.01018 198 4.17018C198 5.06018 197.74 6.07018 197.23 7.20018L193.87 15.1702C193.22 16.7102 192.35 17.9302 191.26 18.8302C190.17 19.7302 188.8 20.3602 187.15 20.7102L187.51 30.3802C187.51 30.8902 187.24 31.1502 186.7 31.1502H178.93C178.34 31.1502 178.04 30.8902 178.04 30.3802L177.84 21.0402H172.62L168.7 30.3002C168.48 30.8702 168.08 31.1502 167.49 31.1502H159.16C158.62 31.1502 158.46 30.8702 158.67 30.3002L158.69 30.2902ZM183.4 13.6702C184.16 13.6702 184.71 13.2502 185.06 12.4202L185.79 10.6802C185.92 10.3602 185.99 10.1102 185.99 9.95018C185.99 9.57018 185.73 9.38018 185.22 9.38018H177.58L175.76 13.6702H183.4Z" fill="#DFDFDF"/>
<path d="M5.04 32.7302L5 32.4102H0L0.05 32.8302C2.67 54.1102 20.82 70.1602 42.27 70.1602H61.96L61.93 69.7602C61.86 68.6202 62 67.2302 62.35 65.6502L62.45 65.1902H42.26C23.57 65.1902 7.57 51.2402 5.03 32.7402L5.04 32.7302Z" fill="#DFDFDF"/>
<path d="M17.4302 32.7404L17.4002 32.4004H12.4102L12.4502 32.8104C13.8102 48.3104 27.0602 60.4504 42.6302 60.4504H63.9602L64.0502 60.2104C64.5502 58.8904 65.1402 57.4704 65.8002 56.0104L66.0402 55.4804H42.6302C29.5902 55.4804 18.7602 45.7004 17.4402 32.7304L17.4302 32.7404Z" fill="#699CFF"/>
<path d="M48.3098 46.7104C39.8298 46.7104 32.4898 40.9504 30.4498 32.6904L30.3798 32.4004H25.3198L25.4098 32.8504C27.5798 43.7604 37.2098 51.6704 48.3098 51.6704H67.8798L67.9798 51.4604C68.6898 50.0704 69.4398 48.6604 70.2098 47.2504L70.5198 46.6904H48.3098V46.7104Z" fill="#B6FF02"/>
</g>
<defs>
<clipPath id="clip0_125_1496">
<rect width="198" height="69.93" fill="white" transform="translate(0 0.930176)"/>
</clipPath>
</defs>
</svg>
